# xmcd
#
# Track frame offsets:
#	150
#	14339
#	32606
#	51847
#	66911
#	81248
#	90700
#	103253
#	118006
#	131896
#	145394
#	156774
#	169067
#	187290
#	202469
#	216041
#	229224
#	234190
#	243382
#	253207
#	261420
#	269610
#	283527
#	304438
#	314736
#	320408
#	335772
#
# Disc length: 4634 seconds
#
# Revision: 1
# Processed by: cddbd v1.5.2PL0 Copyright (c) Steve Scherf et al.
# Submitted via: audiograbber 1.83.01
#
DISCID=b512181b
DTITLE=Leadbelly - The Definitive Leadbelly 60th Anniversary Disc 3
DYEAR=2009
DGENRE=blues
TTITLE0=Cow Cow Yicky Yea/ Out On The Western Plain
TTITLE1=Noted Rider/ Big Fat Woman/Borrow Love and Go
TTITLE2=John Hardy
TTITLE3=Meeting At The Building/Talking Preaching/We Shall Walk Through The Va
TTITLE3=lley
TTITLE4=John Henry
TTITLE5=Go Down Old Hannah
TTITLE6=Grasshoppers In My Pillow
TTITLE7=Tell Me Baby What Was Wrong With You
TTITLE8=Don't You Love Your Daddy No More
TTITLE9=Stew Ball
TTITLE10=Mothers Blues (Little Children Blues)
TTITLE11=Salty Dog
TTITLE12=Titanic (Fare Thee Well)
TTITLE13=Boll Weevil
TTITLE14=Take This Hammer
TTITLE15=Can't You Line 'Em
TTITLE16=Ain't Going Down To The Well No More
TTITLE17=Ain't You Glad
TTITLE18=Shout On (Honey I'm All Out and Down)
TTITLE19=Birmingham Jail (Down In The Valley)
TTITLE20=Bye and Bye When The Morning Comes
TTITLE21=Po Howard
TTITLE22=Matchbox Blues
TTITLE23=Pigmeat
TTITLE24=Green Corn
TTITLE25=Backwater Blues
TTITLE26=The Last 'Leaving Blues'
EXTD=
EXTT0=
EXTT1=
EXTT2=
EXTT3=
EXTT4=
EXTT5=
EXTT6=
EXTT7=
EXTT8=
EXTT9=
EXTT10=
EXTT11=
EXTT12=
EXTT13=
EXTT14=
EXTT15=
EXTT16=
EXTT17=
EXTT18=
EXTT19=
EXTT20=
EXTT21=
EXTT22=
EXTT23=
EXTT24=
EXTT25=
EXTT26=
PLAYORDER=
